<svg xmlns="http://www.w3.org/2000/svg" width="30.283" height="35.015" viewBox="0 0 30.283 35.015"><path d="M124.368,0H111.045a2.06,2.06,0,0,0-2.057,2.057v26.25a2.06,2.06,0,0,0,2.057,2.057h13.323a2.06,2.06,0,0,0,2.057-2.057V2.057A2.06,2.06,0,0,0,124.368,0Zm1.108,28.307a1.11,1.11,0,0,1-1.108,1.108H111.045a1.11,1.11,0,0,1-1.108-1.108V2.057A1.11,1.11,0,0,1,111.045.949h13.323a1.11,1.11,0,0,1,1.108,1.108v26.25ZM119.731,2.552a.474.474,0,0,1-.474.474h-3.1a.474.474,0,0,1,0-.949h3.1A.474.474,0,0,1,119.731,2.552ZM117.707,25.64a1.6,1.6,0,1,0,1.6,1.6A1.6,1.6,0,0,0,117.707,25.64Zm0,2.242a.647.647,0,1,1,.647-.647A.647.647,0,0,1,117.707,27.882Z" transform="translate(-94.386 63.213) rotate(-30)"/></svg>