<svg xmlns="http://www.w3.org/2000/svg" width="6.527" height="6.479" viewBox="0 0 6.527 6.479"><g transform="translate(0 -0.178)"><path d="M15.516,13.079H13.2a.2.2,0,0,1-.2-.2V9.2a.2.2,0,0,1,.246-.2l2.371.5a.474.474,0,0,1,.375.465V12.6A.476.476,0,0,1,15.516,13.079Z" transform="translate(-9.464 -6.422)" fill="#90a4ae"/><path d="M13.954,9.141v4.041h1.224V9.4Z" transform="translate(-10.01 -6.525)" fill="#7d8f97"/><path d="M3.544.638.555.184A.482.482,0,0,0,.169.29.486.486,0,0,0,0,.654v5.73a.273.273,0,0,0,.272.272h.884V5.229a.475.475,0,0,1,.476-.476h.68a.475.475,0,0,1,.476.476V6.657H3.944V1.109a.476.476,0,0,0-.4-.471Z" fill="#607d8b"/><path d="M5.882,17.476V18.9H4.25V17.476A.475.475,0,0,1,4.726,17h.68A.475.475,0,0,1,5.882,17.476Z" transform="translate(-3.094 -12.247)" fill="#eceff1"/><path d="M.478.178A.479.479,0,0,0,.169.29.486.486,0,0,0,0,.654v5.73a.273.273,0,0,0,.272.272h.884V5.229a.475.475,0,0,1,.476-.476h.34V.4L.555.184A.486.486,0,0,0,.478.178Z" transform="translate(0 0)" fill="#546d79"/><path d="M5.066,17h-.34a.475.475,0,0,0-.476.476V18.9h.816Z" transform="translate(-3.094 -12.247)" fill="#cdd0d2"/><g transform="translate(0.884 1.285)"><path d="M3.862,7.658H3.454a.2.2,0,0,1,0-.408h.408a.2.2,0,0,1,0,.408Z" transform="translate(-3.25 -6.434)" fill="#eceff1"/><path d="M8.862,7.658H8.454a.2.2,0,0,1,0-.408h.408a.2.2,0,0,1,0,.408Z" transform="translate(-6.89 -6.434)" fill="#eceff1"/><path d="M3.862,10.658H3.454a.2.2,0,0,1,0-.408h.408a.2.2,0,0,1,0,.408Z" transform="translate(-3.25 -8.618)" fill="#eceff1"/><path d="M8.862,10.658H8.454a.2.2,0,0,1,0-.408h.408a.2.2,0,0,1,0,.408Z" transform="translate(-6.89 -8.618)" fill="#eceff1"/><path d="M3.862,13.658H3.454a.2.2,0,0,1,0-.408h.408a.2.2,0,0,1,0,.408Z" transform="translate(-3.25 -10.802)" fill="#eceff1"/><path d="M8.862,13.658H8.454a.2.2,0,0,1,0-.408h.408a.2.2,0,0,1,0,.408Z" transform="translate(-6.89 -10.802)" fill="#eceff1"/><path d="M18.112,16.908H17.7a.2.2,0,0,1,0-.408h.408a.2.2,0,0,1,0,.408Z" transform="translate(-13.624 -13.168)" fill="#eceff1"/><path d="M18.112,19.908H17.7a.2.2,0,0,1,0-.408h.408a.2.2,0,0,1,0,.408Z" transform="translate(-13.624 -15.352)" fill="#eceff1"/><path d="M3.862,4.658H3.454a.2.2,0,0,1,0-.408h.408a.2.2,0,0,1,0,.408Z" transform="translate(-3.25 -4.25)" fill="#eceff1"/><path d="M8.862,4.658H8.454a.2.2,0,0,1,0-.408h.408a.2.2,0,0,1,0,.408Z" transform="translate(-6.89 -4.25)" fill="#eceff1"/><path d="M18.112,13.908H17.7a.2.2,0,0,1,0-.408h.408a.2.2,0,0,1,0,.408Z" transform="translate(-13.624 -10.984)" fill="#eceff1"/></g><path d="M4.066,5H3.25a.2.2,0,0,0,.2.2h.408A.2.2,0,0,0,4.066,5Z" transform="translate(-2.366 -3.511)" fill="#cdd0d2"/><path d="M9.066,5H8.25a.2.2,0,0,0,.2.2h.408A.2.2,0,0,0,9.066,5Z" transform="translate(-6.006 -3.511)" fill="#cdd0d2"/><path d="M4.066,8H3.25a.2.2,0,0,0,.2.2h.408A.2.2,0,0,0,4.066,8Z" transform="translate(-2.366 -5.695)" fill="#cdd0d2"/><path d="M9.066,8H8.25a.2.2,0,0,0,.2.2h.408A.2.2,0,0,0,9.066,8Z" transform="translate(-6.006 -5.695)" fill="#cdd0d2"/><path d="M4.066,11H3.25a.2.2,0,0,0,.2.2h.408A.2.2,0,0,0,4.066,11Z" transform="translate(-2.366 -7.879)" fill="#cdd0d2"/><path d="M9.066,11H8.25a.2.2,0,0,0,.2.2h.408A.2.2,0,0,0,9.066,11Z" transform="translate(-6.006 -7.879)" fill="#cdd0d2"/><path d="M4.066,14H3.25a.2.2,0,0,0,.2.2h.408A.2.2,0,0,0,4.066,14Z" transform="translate(-2.366 -10.063)" fill="#cdd0d2"/><path d="M9.066,14H8.25a.2.2,0,0,0,.2.2h.408A.2.2,0,0,0,9.066,14Z" transform="translate(-6.006 -10.063)" fill="#cdd0d2"/><path d="M18.316,14.25H17.5a.2.2,0,0,0,.2.2h.408A.2.2,0,0,0,18.316,14.25Z" transform="translate(-12.74 -10.245)" fill="#cdd0d2"/><path d="M18.316,17.25H17.5a.2.2,0,0,0,.2.2h.408A.2.2,0,0,0,18.316,17.25Z" transform="translate(-12.74 -12.429)" fill="#cdd0d2"/><path d="M18.316,20.25H17.5a.2.2,0,0,0,.2.2h.408A.2.2,0,0,0,18.316,20.25Z" transform="translate(-12.74 -14.613)" fill="#cdd0d2"/></g></svg>