<svg xmlns="http://www.w3.org/2000/svg" width="23.817" height="23.817" viewBox="0 0 23.817 23.817"><path d="M202.116,220.5a1.158,1.158,0,0,1-.7-.157.725.725,0,0,1-.2-.6,3.1,3.1,0,0,1,.065-.541,5.957,5.957,0,0,1,.141-.606l.639-2.2a3.328,3.328,0,0,0,.13-.666c0-.244.032-.411.032-.509a1.424,1.424,0,0,0-.5-1.131,2.117,2.117,0,0,0-1.429-.433,3.708,3.708,0,0,0-1.083.179q-.574.179-1.207.428l-.184.715c.124-.043.276-.092.449-.146a1.841,1.841,0,0,1,.509-.076,1.039,1.039,0,0,1,.687.168.785.785,0,0,1,.179.59,2.567,2.567,0,0,1-.06.541q-.057.284-.146.6l-.644,2.208a6.31,6.31,0,0,0-.124.623,3.867,3.867,0,0,0-.038.541,1.413,1.413,0,0,0,.541,1.12,2.165,2.165,0,0,0,1.451.444,3.339,3.339,0,0,0,1.083-.157q.46-.157,1.229-.449l.173-.682a2.991,2.991,0,0,1-.428.141A2.056,2.056,0,0,1,202.116,220.5Z" transform="translate(-188.616 -203.72)" fill="#fcfcfc"/><path d="M251.174,128.4a1.647,1.647,0,0,0-2.165,0,1.294,1.294,0,0,0,0,1.96,1.624,1.624,0,0,0,2.165,0,1.3,1.3,0,0,0,0-1.96Z" transform="translate(-236.998 -122.036)" fill="#fcfcfc"/><path d="M11.909,0A11.909,11.909,0,1,0,23.817,11.909,11.909,11.909,0,0,0,11.909,0Zm0,22.735A10.826,10.826,0,1,1,22.735,11.909,10.826,10.826,0,0,1,11.909,22.735Z" fill="#fcfcfc"/></svg>