<svg xmlns="http://www.w3.org/2000/svg" width="29.25" height="19.5" viewBox="0 0 29.25 19.5"><g transform="translate(0 -85.333)"><g transform="translate(0 85.333)"><path d="M27.75,85.333H1.5a1.5,1.5,0,0,0-1.5,1.5v16.5a1.5,1.5,0,0,0,1.5,1.5H27.75a1.5,1.5,0,0,0,1.5-1.5v-16.5A1.5,1.5,0,0,0,27.75,85.333Zm-.563,1.125-11.7,8.775a1.568,1.568,0,0,1-1.726,0l-11.7-8.775Zm-6.249,9.354,6.375,7.875c.006.008.014.014.021.021H1.916c.007-.007.015-.013.021-.021l6.375-7.875a.563.563,0,0,0-.875-.708l-6.313,7.8V87.161l11.962,8.972a2.685,2.685,0,0,0,3.075,0l11.962-8.972V102.9l-6.313-7.8a.563.563,0,0,0-.874.708Z" transform="translate(0 -85.333)"/></g></g></svg>