<svg xmlns="http://www.w3.org/2000/svg" xmlns:xlink="http://www.w3.org/1999/xlink" width="13" height="13" viewBox="0 0 13 13"><defs><linearGradient id="a" x1="0.5" y1="1" x2="0.5" gradientUnits="objectBoundingBox"><stop offset="0" stop-color="#c3ffe8"/><stop offset="0.997" stop-color="#f0fff4"/></linearGradient><linearGradient id="b" x1="0.5" x2="0.5" y2="1" gradientUnits="objectBoundingBox"><stop offset="0" stop-color="#00b59c"/><stop offset="1" stop-color="#9cffac"/></linearGradient></defs><g transform="translate(0 0.415)"><g transform="translate(0 -0.415)"><circle cx="6.5" cy="6.5" r="6.5" fill="url(#a)"/></g><g transform="translate(3.524 2.361)"><path d="M143.022,107.692a1.121,1.121,0,1,0,1.121,1.121A1.123,1.123,0,0,0,143.022,107.692Zm.607,1.056-.673.673a.224.224,0,0,1-.317,0l-.224-.224a.224.224,0,0,1,.317-.317l.066.066.514-.514a.224.224,0,0,1,.317.317Zm2.084-2.527a4.661,4.661,0,0,1-2.541-1.162.225.225,0,0,0-.3,0,4.661,4.661,0,0,1-2.541,1.162.224.224,0,0,0-.224.224v2.671c0,2.114,1.515,2.963,2.836,3.467a.225.225,0,0,0,.16,0c1.32-.5,2.836-1.354,2.836-3.467v-2.671A.224.224,0,0,0,145.713,106.221Zm-2.691,4.162a1.57,1.57,0,1,1,1.57-1.57A1.572,1.572,0,0,1,143.022,110.383Z" transform="translate(-140.106 -105.001)" fill="url(#b)"/></g></g></svg>