<svg xmlns="http://www.w3.org/2000/svg" width="24.383" height="23.902" viewBox="0 0 24.383 23.902"><g transform="translate(0 -4.503)"><path d="M5.211,54.021H.717a.717.717,0,0,1,0-1.434H5.211a.717.717,0,0,1,0,1.434Z" transform="translate(0 -45.516)"/><path d="M87.421,11.073a3.285,3.285,0,1,1,3.285-3.285A3.288,3.288,0,0,1,87.421,11.073Zm0-5.135a1.851,1.851,0,1,0,1.851,1.851A1.853,1.853,0,0,0,87.421,5.937Z" transform="translate(-79.643)"/><path d="M240.44,54.021H229.722a.717.717,0,0,1,0-1.434H240.44a.717.717,0,0,1,0,1.434Z" transform="translate(-216.775 -45.516)"/><path d="M267.714,173.343A3.285,3.285,0,1,1,271,170.059,3.288,3.288,0,0,1,267.714,173.343Zm0-5.135a1.85,1.85,0,1,0,1.851,1.85A1.852,1.852,0,0,0,267.714,168.208Z" transform="translate(-250.307 -153.605)"/><path d="M12.238,216.284H.717a.717.717,0,1,1,0-1.434H12.238a.717.717,0,1,1,0,1.434Z" transform="translate(0 -199.113)"/><path d="M365,216.284H361.3a.717.717,0,0,1,0-1.434H365a.717.717,0,0,1,0,1.434Z" transform="translate(-341.329 -199.113)"/><path d="M72.4,335.607a3.285,3.285,0,1,1,3.285-3.285A3.289,3.289,0,0,1,72.4,335.607Zm0-5.135a1.851,1.851,0,1,0,1.851,1.85A1.852,1.852,0,0,0,72.4,330.471Z" transform="translate(-65.422 -307.202)"/><path d="M226.217,378.548H214.7a.717.717,0,1,1,0-1.434h11.521a.717.717,0,1,1,0,1.434Z" transform="translate(-202.551 -352.711)"/><path d="M4.408,378.547H.717a.717.717,0,0,1,0-1.434H4.408a.717.717,0,0,1,0,1.434Z" transform="translate(0 -352.71)"/></g></svg>